<?xml version="1.0" encoding="utf-8"?>
<!-- Generator: Adobe Illustrator 24.2.1, SVG Export Plug-In . SVG Version: 6.00 Build 0)  -->
<svg version="1.1" id="Layer_1" xmlns="http://www.w3.org/2000/svg" xmlns:xlink="http://www.w3.org/1999/xlink" x="0px" y="0px"
	 viewBox="0 0 524.3 524" style="enable-background:new 0 0 524.3 524;" xml:space="preserve">
<style type="text/css">
	.st0{fill:#E2DFCF;stroke:#000000;stroke-width:5;stroke-miterlimit:10;}
	.st1{fill:#818080;stroke:#000000;stroke-width:5;stroke-miterlimit:10;}
	.st2{fill:#1D1D1B;stroke:#000000;stroke-width:5;stroke-miterlimit:10;}
	.st3{fill:#FFFFFF;stroke:#000000;stroke-width:5;stroke-miterlimit:10;}
	.st4{stroke:#000000;stroke-width:5;stroke-miterlimit:10;}
	.st5{fill:#FFFFFF;stroke:#FFFFFF;stroke-width:5;stroke-miterlimit:10;}
	.st6{fill:none;stroke:#FFFFFF;stroke-width:5;stroke-miterlimit:10;}
	.st7{fill:none;stroke:#000000;stroke-width:5;stroke-miterlimit:10;}
</style>
<path class="st0" d="M428.3,405.2H106.1c-9.1,0-16.4-7.4-16.4-16.4V191c0-9.1,7.3-16.4,16.4-16.4h322.2c9.1,0,16.4,7.4,16.4,16.4
	v197.7C444.7,397.8,437.3,405.2,428.3,405.2z"/>
<path class="st1" d="M429.2,174.6H105.1c-8.5,0-15.4,6.9-15.4,15.4v53h355.1v-53C444.7,181.5,437.8,174.6,429.2,174.6z"/>
<rect x="114.3" y="151" class="st2" width="48.3" height="23.6"/>
<g>
	<g>
		<circle class="st3" cx="273.8" cy="289.9" r="88.3"/>
	</g>
	<g>
		<circle class="st4" cx="273.8" cy="289.9" r="76.4"/>
		<polygon class="st5" points="296.1,251.2 251.5,251.2 229.2,289.9 251.5,328.5 296.1,328.5 318.4,289.9 		"/>
		<line class="st6" x1="251.5" y1="251.2" x2="273.8" y2="210.1"/>
		<path class="st6" d="M296.1,251.2h47.5H296.1z"/>
		<line class="st6" x1="318.4" y1="289.9" x2="343.6" y2="328.5"/>
		<line class="st6" x1="296.1" y1="328.5" x2="273.8" y2="369.6"/>
		<line class="st6" x1="251.5" y1="328.5" x2="204" y2="328.5"/>
		<line class="st6" x1="229.2" y1="289.9" x2="204" y2="251.2"/>
	</g>
</g>
<line class="st7" x1="89.6" y1="243" x2="197.9" y2="243"/>
<line class="st7" x1="348.7" y1="243" x2="444.7" y2="243"/>
<polygon class="st2" points="202.8,174.6 344.8,174.6 309.3,117.1 238.3,117.1 "/>
</svg>
